<svg width="68" height="87" viewBox="0 0 68 87" fill="none" xmlns="http://www.w3.org/2000/svg">
<path d="M0 0.480005C0 0.214909 0.214903 0 0.48 0H15.52C15.7851 0 16 0.214903 16 0.48V86.52C16 86.7851 15.7851 87 15.52 87H0.48C0.214903 87 0 86.7851 0 86.52V0.480005Z" fill="#C8D0DC"/>
<path d="M13 35.51C13 35.2283 13.2283 35 13.51 35H67.49C67.7717 35 68 35.2283 68 35.51V51.49C68 51.7717 67.7717 52 67.49 52H13.51C13.2283 52 13 51.7717 13 51.49V35.51Z" fill="#C8D0DC"/>
<path d="M13 0.48C13 0.214903 13.2149 0 13.48 0H51.52C51.7851 0 52 0.214903 52 0.48V15.52C52 15.7851 51.7851 16 51.52 16H13.48C13.2149 16 13 15.7851 13 15.52V0.48Z" fill="#C8D0DC"/>
<path d="M13 71.48C13 71.2149 13.2149 71 13.48 71H49.52C49.7851 71 50 71.2149 50 71.48V86.52C50 86.7851 49.7851 87 49.52 87H13.48C13.2149 87 13 86.7851 13 86.52V71.48Z" fill="#C8D0DC"/>
</svg>
