<svg width="101" height="56" viewBox="0 0 101 56" fill="none" xmlns="http://www.w3.org/2000/svg">
<path d="M0 0.275865C0 0.123511 0.170659 0 0.381176 0H12.3247C12.5352 0 12.7059 0.123508 12.7059 0.275862V49.7241C12.7059 49.8765 12.5352 50 12.3247 50H0.381176C0.170658 50 0 49.8765 0 49.7241V0.275865Z" fill="#C8D0DC"/>
<path d="M10.3235 20.408C10.3235 20.2462 10.5049 20.1149 10.7285 20.1149H53.595C53.8187 20.1149 54 20.2462 54 20.408V29.592C54 29.7538 53.8187 29.8851 53.595 29.8851H10.7285C10.5049 29.8851 10.3235 29.7538 10.3235 29.592V20.408Z" fill="#C8D0DC"/>
<path d="M10.3235 0.275862C10.3235 0.123507 10.4942 0 10.7047 0H40.9129C41.1235 0 41.2941 0.123508 41.2941 0.275862V8.91954C41.2941 9.07189 41.1235 9.1954 40.9129 9.1954H10.7047C10.4942 9.1954 10.3235 9.07189 10.3235 8.91954V0.275862Z" fill="#C8D0DC"/>
<path d="M10.3235 41.0805C10.3235 40.9281 10.4942 40.8046 10.7047 40.8046H39.3247C39.5352 40.8046 39.7059 40.9281 39.7059 41.0805V49.7241C39.7059 49.8765 39.5352 50 39.3247 50H10.7047C10.4942 50 10.3235 49.8765 10.3235 49.7241V41.0805Z" fill="#C8D0DC"/>
<path d="M47.9844 37.3203L48.0547 38.9141C49.0234 37.6953 50.2891 37.0859 51.8516 37.0859C54.5312 37.0859 55.8828 38.5977 55.9062 41.6211V50H53.7383V41.6094C53.7305 40.6953 53.5195 40.0195 53.1055 39.582C52.6992 39.1445 52.0625 38.9258 51.1953 38.9258C50.4922 38.9258 49.875 39.1133 49.3438 39.4883C48.8125 39.8633 48.3984 40.3555 48.1016 40.9648V50H45.9336V37.3203H47.9844ZM67.0039 50C66.8789 49.75 66.7773 49.3047 66.6992 48.6641C65.6914 49.7109 64.4883 50.2344 63.0898 50.2344C61.8398 50.2344 60.8125 49.8828 60.0078 49.1797C59.2109 48.4688 58.8125 47.5703 58.8125 46.4844C58.8125 45.1641 59.3125 44.1406 60.3125 43.4141C61.3203 42.6797 62.7344 42.3125 64.5547 42.3125H66.6641V41.3164C66.6641 40.5586 66.4375 39.957 65.9844 39.5117C65.5312 39.0586 64.8633 38.832 63.9805 38.832C63.207 38.832 62.5586 39.0273 62.0352 39.418C61.5117 39.8086 61.25 40.2812 61.25 40.8359H59.0703C59.0703 40.2031 59.293 39.5938 59.7383 39.0078C60.1914 38.4141 60.8008 37.9453 61.5664 37.6016C62.3398 37.2578 63.1875 37.0859 64.1094 37.0859C65.5703 37.0859 66.7148 37.4531 67.543 38.1875C68.3711 38.9141 68.8008 39.918 68.832 41.1992V47.0352C68.832 48.1992 68.9805 49.125 69.2773 49.8125V50H67.0039ZM63.4062 48.3477C64.0859 48.3477 64.7305 48.1719 65.3398 47.8203C65.9492 47.4688 66.3906 47.0117 66.6641 46.4492V43.8477H64.9648C62.3086 43.8477 60.9805 44.625 60.9805 46.1797C60.9805 46.8594 61.207 47.3906 61.6602 47.7734C62.1133 48.1562 62.6953 48.3477 63.4062 48.3477ZM79.6133 46.6367C79.6133 46.0508 79.3906 45.5977 78.9453 45.2773C78.5078 44.9492 77.7383 44.668 76.6367 44.4336C75.543 44.1992 74.6719 43.918 74.0234 43.5898C73.3828 43.2617 72.9062 42.8711 72.5938 42.418C72.2891 41.9648 72.1367 41.4258 72.1367 40.8008C72.1367 39.7617 72.5742 38.8828 73.4492 38.1641C74.332 37.4453 75.457 37.0859 76.8242 37.0859C78.2617 37.0859 79.4258 37.457 80.3164 38.1992C81.2148 38.9414 81.6641 39.8906 81.6641 41.0469H79.4844C79.4844 40.4531 79.2305 39.9414 78.7227 39.5117C78.2227 39.082 77.5898 38.8672 76.8242 38.8672C76.0352 38.8672 75.418 39.0391 74.9727 39.3828C74.5273 39.7266 74.3047 40.1758 74.3047 40.7305C74.3047 41.2539 74.5117 41.6484 74.9258 41.9141C75.3398 42.1797 76.0859 42.4336 77.1641 42.6758C78.25 42.918 79.1289 43.207 79.8008 43.543C80.4727 43.8789 80.9688 44.2852 81.2891 44.7617C81.6172 45.2305 81.7812 45.8047 81.7812 46.4844C81.7812 47.6172 81.3281 48.5273 80.4219 49.2148C79.5156 49.8945 78.3398 50.2344 76.8945 50.2344C75.8789 50.2344 74.9805 50.0547 74.1992 49.6953C73.418 49.3359 72.8047 48.8359 72.3594 48.1953C71.9219 47.5469 71.7031 46.8477 71.7031 46.0977H73.8711C73.9102 46.8242 74.1992 47.4023 74.7383 47.832C75.2852 48.2539 76.0039 48.4648 76.8945 48.4648C77.7148 48.4648 78.3711 48.3008 78.8633 47.9727C79.3633 47.6367 79.6133 47.1914 79.6133 46.6367ZM86.9609 50H84.793V37.3203H86.9609V50ZM84.6172 33.957C84.6172 33.6055 84.7227 33.3086 84.9336 33.0664C85.1523 32.8242 85.4727 32.7031 85.8945 32.7031C86.3164 32.7031 86.6367 32.8242 86.8555 33.0664C87.0742 33.3086 87.1836 33.6055 87.1836 33.957C87.1836 34.3086 87.0742 34.6016 86.8555 34.8359C86.6367 35.0703 86.3164 35.1875 85.8945 35.1875C85.4727 35.1875 85.1523 35.0703 84.9336 34.8359C84.7227 34.6016 84.6172 34.3086 84.6172 33.957ZM92.4805 48.2305H99.8984V50H89.832V48.4062L96.8281 39.1133H89.9375V37.3203H99.5469V38.8555L92.4805 48.2305Z" fill="#C8D0DC"/>
</svg>
